<svg width="25" height="80" viewBox="0 0 25 80" fill="none" xmlns="http://www.w3.org/2000/svg">
<path d="M8.92369 2.22375C13.2472 10.8707 11.0834 20.8637 12.1138 30.137C12.6712 35.154 12.3767 40.5235 12.2058 45.5659C12.0426 50.3814 12.0784 55.6462 11.2549 60.3814C10.8105 62.9365 10.6122 67.1968 9.04639 69.1541C8.06706 70.3783 8.92369 75.2554 8.92369 76.7612M1.746 61.8538C1.88727 66.7983 4.84772 70.6884 6.71517 74.8902C6.90173 75.3099 7.40506 78.5328 8.37156 78.0496C9.99395 77.2384 11.8535 74.6865 13.2794 73.5098C16.2925 71.0233 19.2444 69.1163 22.7269 67.3751" stroke="#CDC0C9" stroke-width="3" stroke-linecap="round"/>
</svg>
